# Blender 5.0.1
# www.blender.org
o Web_Card.001
v -0.954609 0.522392 0.855756
v 0.997794 0.898810 1.014262
v -0.825001 0.762594 -0.940984
v 0.867387 0.521786 -0.899400
v -0.926000 0.777809 -0.012426
v -0.009592 0.062859 0.869333
v 1.018819 0.225537 0.065257
v -0.085458 0.385283 -1.013375
v -0.033129 -0.241278 -0.022698
v -0.984602 0.802434 0.479618
v 0.590508 0.476037 0.973696
v 0.939106 0.278035 -0.478125
v -0.521312 0.502241 -0.985942
v -0.889009 0.657564 -0.535950
v -0.578367 0.277288 0.860335
v 1.056355 0.580261 0.586303
v 0.454682 0.468010 -0.997907
v -0.028089 -0.034153 -0.548696
v -0.049113 -0.077145 0.454943
v -0.621961 0.258593 -0.035191
v 0.594529 -0.054292 0.038824
v 0.610936 0.221558 0.537130
v -0.662836 0.370352 0.453064
v -0.538746 0.249443 -0.549403
v 0.524698 0.107013 -0.517659
v -0.990404 0.653549 0.706853
v 0.843796 0.760725 1.018494
v 0.903188 0.418989 -0.735773
v -0.701926 0.664546 -0.970626
v -0.913875 0.682726 -0.273339
v -0.305517 0.114545 0.854004
v 1.044574 0.360478 0.321743
v 0.179833 0.430947 -1.016468
v -0.060770 0.209293 -0.821171
v -0.052249 -0.173766 0.215891
v -0.812195 0.594696 -0.020734
v 0.297429 -0.205536 0.009804
v -0.948428 0.847335 0.238838
v 0.295847 0.195915 0.913390
v 0.982562 0.201850 -0.199931
v -0.319995 0.391350 -1.000189
v -0.857854 0.713509 -0.782172
v -0.811540 0.432002 0.870039
v 1.039707 0.797959 0.846278
v 0.707862 0.504771 -0.954504
v -0.016736 -0.206463 -0.275394
v -0.028338 0.005602 0.693133
v -0.356128 -0.077914 -0.040718
v 0.849004 0.114877 0.057591
v 0.605395 0.050283 0.286442
v 0.604488 0.384327 0.790041
v 0.294478 0.003951 0.492870
v 0.881409 0.448618 0.570745
v -0.657995 0.344789 0.210748
v -0.624606 0.328450 0.689136
v -0.866742 0.662873 0.470905
v -0.382623 0.060923 0.441073
v -0.522798 0.384471 -0.804359
v -0.575984 0.200347 -0.288665
v -0.746016 0.494992 -0.542105
v -0.299434 0.042190 -0.553064
v 0.480370 0.316615 -0.802894
v 0.569309 -0.037356 -0.226714
v 0.254826 0.009051 -0.536257
v 0.769454 0.209792 -0.495398
v 0.815332 0.107245 -0.208465
v 0.289153 -0.168599 -0.250755
v 0.209314 0.256981 -0.819686
v -0.316911 -0.079426 -0.289895
v -0.782158 0.500091 -0.279806
v -0.717478 0.581470 -0.794486
v -0.343832 0.096517 0.679472
v -0.851381 0.545424 0.704037
v -0.842430 0.680869 0.229433
v 0.870005 0.653770 0.833484
v 0.296583 0.121066 0.734631
v 0.293526 -0.124912 0.251669
v 0.870366 0.240635 0.310248
v -0.387386 -0.005405 0.199645
v -0.307718 0.238198 -0.814101
v 0.731547 0.377744 -0.770020
vn 0.4941 0.7444 0.4492
vn -0.5776 0.6282 -0.5213
vn 0.6343 0.6918 0.3450
vn -0.2868 0.7756 0.5623
vn 0.8407 0.5307 -0.1073
vn -0.0960 0.9435 -0.3172
vn -0.5303 0.8211 -0.2111
vn -0.0209 0.7470 0.6645
vn 0.1652 0.9845 -0.0584
vn 0.7375 0.6039 0.3024
vn -0.6127 0.6798 -0.4030
vn -0.3943 0.8214 0.4121
vn 0.5689 0.6950 0.4397
vn 0.7477 0.6432 0.1652
vn 0.5852 0.8103 0.0303
vn -0.4768 0.6786 -0.5587
vn -0.1943 0.7517 0.6302
vn 0.0487 0.8111 0.5829
vn 0.1211 0.9314 -0.3432
vn 0.8197 0.5711 -0.0437
vn -0.4892 0.8641 -0.1187
vn -0.4980 0.7244 -0.4767
vn 0.7787 0.6270 0.0223
vn 0.6646 0.6736 0.3235
vn -0.3249 0.7838 0.5293
vn 0.6046 0.6881 0.4011
vn -0.5894 0.6493 -0.4807
vn -0.3101 0.7881 0.5318
vn 0.6414 0.6745 0.3656
vn 0.8172 0.5723 -0.0682
vn 0.3634 0.9084 -0.2068
vn -0.4800 0.7340 -0.4805
vn -0.1309 0.7329 0.6676
vn -0.0015 0.7497 0.6617
vn 0.1900 0.9312 -0.3111
vn 0.8514 0.5166 -0.0909
vn -0.2726 0.9584 -0.0848
vn 0.8271 0.5588 0.0598
vn -0.4878 0.7987 -0.3523
vn -0.5044 0.8499 0.1525
vn 0.2910 0.7598 0.5814
vn 0.6618 0.6863 0.3017
vn 0.5799 0.7562 0.3032
vn -0.5414 0.6543 -0.5280
vn -0.2570 0.7710 0.5826
vn 0.0997 0.9364 0.3366
vn -0.0000 0.9473 -0.3204
vn 0.6151 0.7873 -0.0426
vn -0.5348 0.8298 -0.1593
vn -0.4679 0.7852 -0.4055
vn -0.5715 0.6964 -0.4341
vn -0.3257 0.8440 -0.4261
vn -0.5005 0.6836 -0.5312
vn 0.8277 0.5569 -0.0691
vn 0.6614 0.7485 0.0474
vn 0.7696 0.5926 0.2379
vn 0.5737 0.7980 -0.1843
vn 0.5913 0.6850 0.4256
vn 0.7626 0.6336 0.1301
vn 0.7469 0.6270 0.2214
vn 0.4216 0.7750 0.4707
vn -0.2279 0.7648 0.6026
vn -0.4485 0.8478 0.2831
vn -0.2399 0.7721 0.5885
vn -0.3832 0.8051 0.4527
vn -0.4984 0.8432 0.2014
vn -0.2817 0.8985 0.3367
vn -0.1700 0.7376 0.6535
vn 0.5319 0.8046 0.2639
vn 0.8212 0.5706 0.0013
vn 0.6715 0.6613 0.3343
vn 0.4573 0.8688 -0.1899
vn 0.6383 0.7013 0.3172
vn 0.8509 0.5252 0.0117
vn -0.5595 0.6597 -0.5017
vn -0.4179 0.8259 -0.3786
vn -0.2661 0.8884 -0.3740
vn -0.4997 0.7469 -0.4388
vn 0.6254 0.7565 -0.1916
vn 0.3186 0.7571 0.5704
vn -0.2897 0.7781 0.5574
vt 0.875000 0.875000
vt 1.000000 1.000000
vt 0.875000 1.000000
vt 0.375000 0.875000
vt 0.500000 1.000000
vt 0.375000 1.000000
vt 0.500000 0.375000
vt 0.375000 0.500000
vt 0.375000 0.375000
vt 0.875000 0.375000
vt 1.000000 0.500000
vt 0.875000 0.500000
vt 0.625000 0.375000
vt 0.750000 0.500000
vt 0.625000 0.500000
vt 0.625000 0.125000
vt 0.750000 0.250000
vt 0.625000 0.250000
vt 0.875000 0.125000
vt 1.000000 0.250000
vt 0.875000 0.250000
vt 0.250000 0.375000
vt 0.125000 0.500000
vt 0.125000 0.375000
vt 0.125000 0.125000
vt 0.250000 0.250000
vt 0.125000 0.250000
vt 0.375000 0.125000
vt 0.500000 0.250000
vt 0.375000 0.250000
vt 0.125000 0.875000
vt 0.250000 1.000000
vt 0.125000 1.000000
vt 0.250000 0.625000
vt 0.125000 0.750000
vt 0.125000 0.625000
vt 0.375000 0.625000
vt 0.500000 0.750000
vt 0.375000 0.750000
vt 0.625000 0.875000
vt 0.750000 1.000000
vt 0.625000 1.000000
vt 0.750000 0.625000
vt 0.625000 0.750000
vt 0.625000 0.625000
vt 0.875000 0.625000
vt 1.000000 0.750000
vt 0.875000 0.750000
vt 0.750000 0.750000
vt 1.000000 0.625000
vt 0.500000 0.625000
vt 0.500000 0.500000
vt 0.500000 0.875000
vt 0.250000 0.750000
vt 0.250000 0.500000
vt 0.000000 0.750000
vt 0.000000 0.625000
vt 0.000000 0.500000
vt 0.000000 0.875000
vt 0.000000 1.000000
vt 0.250000 0.875000
vt 0.250000 0.125000
vt 0.250000 0.000000
vt 0.375000 0.000000
vt 0.500000 0.125000
vt 0.000000 0.125000
vt 0.000000 0.250000
vt 0.000000 0.000000
vt 0.125000 0.000000
vt 0.000000 0.375000
vt 0.750000 0.125000
vt 0.750000 0.000000
vt 0.875000 0.000000
vt 1.000000 0.125000
vt 0.500000 0.000000
vt 0.625000 0.000000
vt 0.750000 0.375000
vt 1.000000 0.375000
vt 0.750000 0.875000
vt 1.000000 0.875000
vt 1.000000 0.000000
s 1
f 81/1/81 4/2/4 45/3/45
f 80/4/80 8/5/8 41/6/41
f 35/7/35 48/8/48 79/9/79
f 78/10/78 7/11/7 49/12/49
f 77/13/77 21/14/21 37/15/37
f 76/16/76 22/17/22 52/18/52
f 75/19/75 16/20/16 53/21/53
f 54/22/54 36/23/36 74/24/74
f 73/25/73 23/26/23 56/27/56
f 72/28/72 19/29/19 57/30/57
f 71/31/71 13/32/13 29/33/29
f 59/34/59 60/35/60 70/36/70
f 69/37/69 18/38/18 61/39/61
f 68/40/68 17/41/17 33/42/33
f 63/43/63 64/44/64 67/45/67
f 66/46/66 12/47/12 65/48/65
f 63/43/63 65/48/65 25/49/25
f 21/14/21 66/46/66 63/43/63
f 49/12/49 40/50/40 66/46/66
f 46/51/46 64/44/64 18/38/18
f 9/52/9 67/45/67 46/51/46
f 37/15/37 63/43/63 67/45/67
f 68/40/68 8/5/8 34/53/34
f 18/38/18 68/40/68 34/53/34
f 25/49/25 68/40/68 64/44/64
f 59/34/59 61/39/61 24/54/24
f 48/8/48 59/34/59 20/55/20
f 9/52/9 69/37/69 48/8/48
f 70/36/70 14/56/14 30/57/30
f 36/23/36 30/57/30 5/58/5
f 20/55/20 70/36/70 36/23/36
f 42/59/42 29/33/29 3/60/3
f 14/56/14 71/31/71 42/59/42
f 60/35/60 58/61/58 71/31/71
f 55/62/55 57/30/57 23/26/23
f 15/63/15 72/28/72 55/62/55
f 31/64/31 47/65/47 72/28/72
f 26/66/26 56/27/56 10/67/10
f 1/68/1 73/25/73 26/66/26
f 43/69/43 55/62/55 73/25/73
f 74/24/74 5/58/5 38/70/38
f 56/27/56 38/70/38 10/67/10
f 23/26/23 74/24/74 56/27/56
f 51/71/51 53/21/53 22/17/22
f 11/72/11 75/19/75 51/71/51
f 27/73/27 44/74/44 75/19/75
f 47/65/47 52/18/52 19/29/19
f 6/75/6 76/16/76 47/65/47
f 39/76/39 51/71/51 76/16/76
f 35/7/35 37/15/37 9/52/9
f 19/29/19 77/13/77 35/7/35
f 52/18/52 50/77/50 77/13/77
f 50/77/50 49/12/49 21/14/21
f 22/17/22 78/10/78 50/77/50
f 53/21/53 32/78/32 78/10/78
f 79/9/79 20/55/20 54/22/54
f 57/30/57 54/22/54 23/26/23
f 19/29/19 79/9/79 57/30/57
f 58/61/58 41/6/41 13/32/13
f 24/54/24 80/4/80 58/61/58
f 61/39/61 34/53/34 80/4/80
f 62/79/62 45/3/45 17/41/17
f 25/49/25 81/1/81 62/79/62
f 65/48/65 28/80/28 81/1/81
f 81/1/81 28/80/28 4/2/4
f 80/4/80 34/53/34 8/5/8
f 35/7/35 9/52/9 48/8/48
f 78/10/78 32/78/32 7/11/7
f 77/13/77 50/77/50 21/14/21
f 76/16/76 51/71/51 22/17/22
f 75/19/75 44/74/44 16/20/16
f 54/22/54 20/55/20 36/23/36
f 73/25/73 55/62/55 23/26/23
f 72/28/72 47/65/47 19/29/19
f 71/31/71 58/61/58 13/32/13
f 59/34/59 24/54/24 60/35/60
f 69/37/69 46/51/46 18/38/18
f 68/40/68 62/79/62 17/41/17
f 63/43/63 25/49/25 64/44/64
f 66/46/66 40/50/40 12/47/12
f 63/43/63 66/46/66 65/48/65
f 21/14/21 49/12/49 66/46/66
f 49/12/49 7/11/7 40/50/40
f 46/51/46 67/45/67 64/44/64
f 9/52/9 37/15/37 67/45/67
f 37/15/37 21/14/21 63/43/63
f 68/40/68 33/42/33 8/5/8
f 18/38/18 64/44/64 68/40/68
f 25/49/25 62/79/62 68/40/68
f 59/34/59 69/37/69 61/39/61
f 48/8/48 69/37/69 59/34/59
f 9/52/9 46/51/46 69/37/69
f 70/36/70 60/35/60 14/56/14
f 36/23/36 70/36/70 30/57/30
f 20/55/20 59/34/59 70/36/70
f 42/59/42 71/31/71 29/33/29
f 14/56/14 60/35/60 71/31/71
f 60/35/60 24/54/24 58/61/58
f 55/62/55 72/28/72 57/30/57
f 15/63/15 31/64/31 72/28/72
f 31/64/31 6/75/6 47/65/47
f 26/66/26 73/25/73 56/27/56
f 1/68/1 43/69/43 73/25/73
f 43/69/43 15/63/15 55/62/55
f 74/24/74 36/23/36 5/58/5
f 56/27/56 74/24/74 38/70/38
f 23/26/23 54/22/54 74/24/74
f 51/71/51 75/19/75 53/21/53
f 11/72/11 27/73/27 75/19/75
f 27/73/27 2/81/2 44/74/44
f 47/65/47 76/16/76 52/18/52
f 6/75/6 39/76/39 76/16/76
f 39/76/39 11/72/11 51/71/51
f 35/7/35 77/13/77 37/15/37
f 19/29/19 52/18/52 77/13/77
f 52/18/52 22/17/22 50/77/50
f 50/77/50 78/10/78 49/12/49
f 22/17/22 53/21/53 78/10/78
f 53/21/53 16/20/16 32/78/32
f 79/9/79 48/8/48 20/55/20
f 57/30/57 79/9/79 54/22/54
f 19/29/19 35/7/35 79/9/79
f 58/61/58 80/4/80 41/6/41
f 24/54/24 61/39/61 80/4/80
f 61/39/61 18/38/18 34/53/34
f 62/79/62 81/1/81 45/3/45
f 25/49/25 65/48/65 81/1/81
f 65/48/65 12/47/12 28/80/28
